# xmcd
#
# Track frame offsets: 
#        150
#        17917
#        30985
#        45487
#        61287
#        76442
#        97535
#        113875
#        124187
#        137678
#        154107
#        165969
#        177078
#
# Disc length: 2498 seconds
#
# Revision: 0
# Processed by: cddbd v1.5.2PL0 Copyright (c) Steve Scherf et al.
# Submitted via: ExactAudioCopy v1.0b4
#
DISCID=9109c00d
DTITLE=Alain Tambay - Back 2 Square 1
DYEAR=2010
DGENRE=Blues
TTITLE0=3 O'Clock
TTITLE1=That Will Never Do
TTITLE2=Where Did'ja Go?
TTITLE3=I'm Loved By You
TTITLE4=Gimme Back My Money
TTITLE5=Fools Heart Attack
TTITLE6=How Long?
TTITLE7=This Song
TTITLE8=Ain't Gonna Worry
TTITLE9=Waitin' At The Station
TTITLE10=I'm Sorry
TTITLE11=Who Told You?
TTITLE12=Saturday Night
EXTD=
EXTT0=
EXTT1=
EXTT2=
EXTT3=
EXTT4=
EXTT5=
EXTT6=
EXTT7=
EXTT8=
EXTT9=
EXTT10=
EXTT11=
EXTT12=
PLAYORDER=
